<svg width="67" height="51" viewBox="0 0 67 51" fill="none" xmlns="http://www.w3.org/2000/svg">
<path d="M21.8667 37.95C21.8667 37.3535 21.2249 36.87 20.4333 36.87C19.6417 36.87 19 37.3535 19 37.95V42.07C19 42.6665 19.6417 43.15 20.4333 43.15C21.2249 43.15 21.8667 42.6665 21.8667 42.07V37.95Z" stroke="black" stroke-linecap="round" stroke-linejoin="round"/>
<path d="M28.1467 35.83C28.1467 35.2335 27.505 34.75 26.7134 34.75C25.9218 34.75 25.28 35.2335 25.28 35.83V42.07C25.28 42.6665 25.9218 43.15 26.7134 43.15C27.505 43.15 28.1467 42.6665 28.1467 42.07V35.83Z" stroke="black" stroke-linecap="round" stroke-linejoin="round"/>
<path d="M34.4267 31.93C34.4267 31.3335 33.7849 30.85 32.9933 30.85C32.2017 30.85 31.56 31.3335 31.56 31.93V42.07C31.56 42.6664 32.2017 43.15 32.9933 43.15C33.7849 43.15 34.4267 42.6664 34.4267 42.07V31.93Z" stroke="black" stroke-linecap="round" stroke-linejoin="round"/>
<path d="M40.7067 37.02C40.7067 36.4235 40.065 35.94 39.2734 35.94C38.4818 35.94 37.84 36.4235 37.84 37.02V42.07C37.84 42.6665 38.4818 43.15 39.2734 43.15C40.065 43.15 40.7067 42.6665 40.7067 42.07V37.02Z" stroke="black" stroke-linecap="round" stroke-linejoin="round"/>
<path d="M47 39.35C47 38.7536 46.3583 38.27 45.5667 38.27C44.7751 38.27 44.1334 38.7536 44.1334 39.35V42.07C44.1334 42.6665 44.7751 43.15 45.5667 43.15C46.3583 43.15 47 42.6665 47 42.07V39.35Z" stroke="black" stroke-linecap="round" stroke-linejoin="round"/>
<path d="M57.4568 27.9677C58.9734 27.9677 60.2164 26.7355 60.0732 25.2256C59.4652 18.8149 56.739 12.7862 52.3144 8.19156C47.2635 2.94659 40.413 5.60006e-07 33.27 0C26.127 -5.60006e-07 19.2765 2.94659 14.2256 8.19156C9.80097 12.7862 7.07483 18.8149 6.46682 25.2256C6.32363 26.7355 7.56662 27.9677 9.08325 27.9677V27.9677C10.5999 27.9677 11.8124 26.7339 11.9922 25.228C12.5766 20.333 14.7152 15.7487 18.1092 12.2244C22.1301 8.04897 27.5836 5.70325 33.27 5.70325C38.9564 5.70326 44.4099 8.04897 48.4308 12.2244C51.8248 15.7487 53.9634 20.333 54.5478 25.228C54.7276 26.734 55.9401 27.9677 57.4568 27.9677V27.9677Z" fill="#0A0304"/>
<path d="M6.33714 31.9893C6.33714 30.6769 7.40111 29.6129 8.71357 29.6129V29.6129C10.026 29.6129 11.09 30.6769 11.09 31.9893V48.6236C11.09 49.936 10.026 51 8.71357 51V51C7.40111 51 6.33714 49.936 6.33714 48.6236V31.9893Z" fill="#0A0304"/>
<path d="M55.45 31.9893C55.45 30.6769 56.514 29.6129 57.8264 29.6129V29.6129C59.1389 29.6129 60.2029 30.6769 60.2029 31.9893V48.6236C60.2029 49.936 59.1389 51 57.8264 51V51C56.514 51 55.45 49.936 55.45 48.6236V31.9893Z" fill="#0A0304"/>
<path d="M61.7871 35.2797C61.7871 33.9672 62.8511 32.9032 64.1636 32.9032V32.9032C65.476 32.9032 66.54 33.9672 66.54 35.2797V45.3332C66.54 46.6457 65.476 47.7097 64.1636 47.7097V47.7097C62.8511 47.7097 61.7871 46.6457 61.7871 45.3332V35.2797Z" fill="#0A0304"/>
<path d="M0 35.2797C0 33.9672 1.06396 32.9032 2.37643 32.9032V32.9032C3.68889 32.9032 4.75286 33.9672 4.75286 35.2797V45.3332C4.75286 46.6457 3.68889 47.7097 2.37643 47.7097V47.7097C1.06396 47.7097 0 46.6457 0 45.3332V35.2797Z" fill="#0A0304"/>
</svg>
